# imported from AVP2010MapViewer 
#Map Dump test 
 
 
mtllib Materials\Materials.mtl 
 
# vertexes 
g 
v 190.355621 42.636005 -199.877090 
vt 0.569197 0.955854 
vn -1.866211 -1.255676 -0.570831 
v 187.387650 41.259888 -195.279510 
vt 0.729281 0.941147 
vn -1.640289 -1.337799 -0.310211 
v 189.490799 53.827576 -194.005997 
vt 0.680165 1.305850 
vn -1.798615 -1.095123 -0.405792 
v 192.544312 53.357811 -199.851181 
vt 0.494913 1.261449 
vn -1.889374 -1.043793 -0.545074 
v 188.740677 60.840164 -194.234161 
vt 0.647544 1.505540 
vn -1.851959 -0.949432 -0.478912 
v 194.377060 53.440037 -204.103806 
vt 0.362073 1.241454 
vn -1.942200 -1.089661 -0.677368 
v 192.085144 42.825588 -203.804184 
vt 0.445589 0.940620 
vn -1.900238 -1.308411 -0.692871 
v 195.625763 53.467480 -209.048004 
vt 0.217065 1.216684 
vn -1.963562 -1.081421 -0.745422 
v 193.260849 42.858807 -208.655594 
vt 0.303783 0.916519 
vn -1.925293 -1.319611 -0.796173 
v 192.441208 60.777222 -199.949112 
vt 0.457105 1.473114 
vn -1.878418 -0.957367 -0.524109 
v 196.927917 53.471134 -214.157288 
vt 0.067216 1.190375 
vn -1.983215 -1.142029 -0.885803 
v 194.222839 42.984020 -213.232895 
vt 0.171051 0.896535 
vn -1.918365 -1.388733 -0.926544 
v 194.217850 43.318607 -217.717087 
vt 0.049759 0.883472 
vn -1.913452 -1.406372 -0.980255 
v 192.151611 66.277313 -200.187012 
vt 0.426866 1.629292 
vn -1.865845 -1.090637 -0.508087 
v 188.088394 66.938385 -194.432571 
vt 0.619178 1.679192 
vn -1.878601 -1.116516 -0.536957 
v 194.000107 66.192650 -204.311234 
vt 0.298107 1.605167 
vn -1.953430 -1.066742 -0.706024 
v 194.321289 60.808323 -204.188889 
vt 0.324370 1.451699 
vn -1.944336 -0.960602 -0.673523 
v 195.232605 66.140930 -209.291595 
vt 0.152688 1.577959 
vn -1.952820 -1.043121 -0.699677 
v 195.574142 60.820164 -209.056793 
vt 0.181434 1.426867 
vn -1.962067 -0.950531 -0.731934 
v 196.680252 65.602692 -214.246414 
vt 0.008109 1.536868 
vn -1.993683 -1.020691 -0.890045 
v 196.939499 60.842422 -213.567612 
vt 0.046817 1.404080 
vn -1.982880 -0.972748 -0.818054 
v 197.064209 61.477303 -217.260162 
vt -0.056147 1.403535 
vn -1.997009 -0.926025 -0.979187 
v 196.260880 67.022995 -217.951065 
vt -0.093403 1.558978 
vn -1.983917 -1.043427 -1.173004 
v 197.232590 53.281109 -221.086594 
vt -0.119982 1.149826 
vn -1.973541 -1.139008 -0.818848 
v 194.304901 42.890251 -220.895187 
vt -0.033888 0.855145 
vn -1.911957 -1.409729 -0.981812 
v 196.653992 64.056267 -220.170288 
vt -0.142206 1.462775 
vn -1.973633 -0.779175 -1.056427 
v 195.542847 67.156235 -221.930054 
vt -0.192867 1.543053 
vn -1.991730 -0.877625 -1.037781 
v 197.483017 60.432072 -223.772247 
vt -0.229207 1.340587 
vn -1.959991 -0.770416 -0.839935 
v 195.458313 46.695019 -224.355087 
vt -0.156746 0.945900 
vn -1.917358 -1.382080 -0.888763 
v 193.421463 41.260399 -224.421219 
vt -0.110939 0.791181 
vn -1.892944 -1.443542 -1.076080 
v 192.833969 41.105167 -227.953415 
vt -0.198413 0.769201 
vn -1.855072 -1.518372 -0.992096 
v 196.167694 47.037323 -225.905991 
vt -0.207141 0.947517 
vn -1.886017 -1.441193 -0.857758 
v 194.622040 43.795856 -230.037827 
vt -0.285656 0.834742 
vn -1.838074 -1.541565 -0.934753 
v 191.678299 39.296841 -230.985901 
vt -0.258607 0.702757 
vn -1.839081 -1.543732 -1.013641 
v 190.935730 38.735779 -235.272949 
vt -0.362650 0.665440 
vn -1.771545 -1.635010 -0.962677 
v 193.468628 40.657391 -235.145142 
vt -0.394762 0.719799 
vn -1.714020 -1.687347 -0.867310 
v 198.787476 52.948727 -231.088455 
vt -0.401409 1.089097 
vn -1.954285 -1.244629 -0.828552 
v 198.590942 45.231136 -236.716690 
vt -0.511918 0.840154 
vn -1.863556 -1.490540 -0.883636 
v 200.878693 57.475277 -236.565887 
vt -0.591330 1.189853 
vn -1.881836 -1.149933 -0.553040 
v 200.228119 62.642342 -233.767776 
vt -0.535170 1.352006 
vn -1.894989 -0.922455 -0.560791 
v 202.229156 69.066650 -236.450455 
vt -0.658825 1.521164 
vn -1.658600 -0.911102 -0.252838 
v 199.065521 64.512451 -232.960342 
vt -0.510757 1.410106 
vn -1.727478 -0.741394 -0.364563 
v 200.196930 69.625595 -235.810333 
vt -0.623500 1.541354 
vn -1.656921 -0.858826 -0.259430 
v 195.711578 69.263672 -229.674301 
vt -0.411645 1.564137 
vn -1.920013 -0.855164 -0.636017 
v 197.805756 62.594193 -229.314178 
vt -0.391048 1.374274 
vn -1.902222 -0.695251 -0.695007 
v 199.224152 59.215260 -229.737808 
vt -0.400480 1.274853 
vn -1.961914 -0.835144 -0.782227 
v 198.870758 57.197342 -224.911087 
vt -0.258121 1.241694 
vn -1.969116 -0.933685 -0.762726 
v 198.711426 53.981506 -224.912857 
vt -0.240809 1.149826 
vn -1.946472 -1.243103 -0.787964 
v 198.787476 52.948727 -231.088455 
vt -0.401409 1.089097 
vn -1.954285 -1.244629 -0.828552 
v 194.622040 43.795856 -230.037827 
vt -0.285656 0.834742 
vn -1.838074 -1.541565 -0.934753 
v 196.167694 47.037323 -225.905991 
vt -0.207141 0.947517 
vn -1.886017 -1.441193 -0.857758 
v 198.711426 53.981506 -224.912857 
vt -0.240809 1.149826 
vn -1.946472 -1.243103 -0.787964 
v 195.458313 46.695019 -224.355087 
vt -0.156746 0.945900 
vn -1.917358 -1.382080 -0.888763 
v 197.232590 53.281109 -221.086594 
vt -0.119982 1.149826 
vn -1.973541 -1.139008 -0.818848 
v 196.939499 60.842422 -213.567612 
vt 0.046817 1.404080 
vn -1.982880 -0.972748 -0.818054 
v 196.927917 53.471134 -214.157288 
vt 0.067216 1.190375 
vn -1.983215 -1.142029 -0.885803 
v 195.625763 53.467480 -209.048004 
vt 0.217065 1.216684 
vn -1.963562 -1.081421 -0.745422 
v 195.574142 60.820164 -209.056793 
vt 0.181434 1.426867 
vn -1.962067 -0.950531 -0.731934 
v 194.377060 53.440037 -204.103806 
vt 0.362073 1.241454 
vn -1.942200 -1.089661 -0.677368 
v 194.321289 60.808323 -204.188889 
vt 0.324370 1.451699 
vn -1.944336 -0.960602 -0.673523 
v 192.544312 53.357811 -199.851181 
vt 0.494913 1.261449 
vn -1.889374 -1.043793 -0.545074 
v 192.441208 60.777222 -199.949112 
vt 0.457105 1.473114 
vn -1.878418 -0.957367 -0.524109 
v 184.180557 23.552528 -200.252594 
vt 0.658322 0.603168 
vn -1.885437 -1.245239 -0.605316 
v 183.997330 23.552525 -200.069107 
vt 0.674071 0.599728 
vn -1.455933 -1.420837 -0.215820 
v 184.312592 26.085323 -198.893097 
vt 0.851426 0.883276 
vn -1.487122 -1.292206 -0.177063 
v 188.840942 69.575043 -193.813965 
vt -0.411087 1.012969 
vn -1.632782 -1.763916 -0.873871 
v 193.529587 70.117767 -201.409195 
vt -0.762447 0.993878 
vn -1.640656 -1.729370 -0.760284 
v 192.151611 66.277313 -200.187012 
vt -0.677329 0.858288 
vn -1.865845 -1.090637 -0.508087 
v 188.088394 66.938385 -194.432571 
vt -0.382562 0.910713 
vn -1.878601 -1.116516 -0.536957 
v 191.678299 39.296841 -230.985901 
vt -1.608974 1.581345 
vn -1.839081 -1.543732 -1.013641 
v 190.935730 38.735779 -235.272949 
vt -1.902083 1.476845 
vn -1.771545 -1.635010 -0.962677 
v 187.750290 33.158459 -235.643936 
vt -1.902301 0.984140 
vn -1.869568 -1.492950 -0.972595 
v 189.139313 35.658134 -230.746078 
vt -1.602696 1.171017 
vn -1.843781 -1.536621 -0.998413 
v 192.833969 41.105167 -227.953415 
vt -1.470974 1.779333 
vn -1.855072 -1.518372 -0.992096 
v 189.062149 35.351303 -228.471954 
vt -1.461001 1.169254 
vn -1.855652 -1.510468 -1.084625 
v 193.421463 41.260399 -224.421219 
vt -1.220873 1.851986 
vn -1.892944 -1.443542 -1.076080 
v 189.644684 35.285355 -224.294891 
vt -1.161129 1.256994 
vn -1.856750 -1.511841 -1.062378 
v 194.304901 42.890251 -220.895187 
vt -0.959616 1.996794 
vn -1.911957 -1.409729 -0.981812 
v 190.026657 35.674892 -220.135071 
vt -0.873058 1.325874 
vn -1.864929 -1.500641 -0.966187 
v 194.217850 43.318607 -217.717087 
vt -0.757356 2.002092 
vn -1.913452 -1.406372 -0.980255 
v 189.777237 35.816765 -216.201218 
vt -0.586576 1.384907 
vn -1.868073 -1.496338 -1.002319 
v 189.506714 34.862591 -212.922714 
vt -0.344492 1.392868 
vn -1.858276 -1.512817 -1.016602 
v 194.222839 42.984020 -213.232895 
vt -0.426559 2.004889 
vn -1.918365 -1.388733 -0.926544 
v 189.332672 35.058334 -208.241333 
vt -0.010679 1.419912 
vn -1.879669 -1.466125 -0.906097 
v 193.260849 42.858807 -208.655594 
vt -0.109755 2.015965 
vn -1.925293 -1.319611 -0.796173 
v 188.448914 34.961723 -203.395981 
vt 0.367177 1.457954 
vn -1.889740 -1.403381 -0.786560 
v 192.085144 42.825588 -203.804184 
vt 0.244726 2.018427 
vn -1.900238 -1.308411 -0.692871 
v 187.076767 34.697224 -200.066269 
vt 0.609189 1.470051 
vn -1.828552 -1.351868 -0.564575 
v 190.355621 42.636005 -199.877090 
vt 0.512914 2.017210 
vn -1.866211 -1.255676 -0.570831 
v 186.520676 30.482513 -203.158524 
vt 0.423733 1.207190 
vn -1.928925 -1.314331 -0.804535 
v 185.513397 30.453558 -199.828766 
vt 0.682500 1.229534 
vn -1.862457 -1.195435 -0.533264 
v 185.125778 25.602644 -202.571594 
vt 0.485987 0.811632 
vn -1.950134 -1.267395 -0.839813 
v 184.312592 26.085323 -198.893097 
vt 0.851426 0.883276 
vn -1.487122 -1.292206 -0.177063 
v 184.180557 23.552528 -200.252594 
vt 0.658322 0.603168 
vn -1.885437 -1.245239 -0.605316 
v 196.680252 65.602692 -214.246414 
vt -0.575432 1.662968 
vn -1.993683 -1.020691 -0.890045 
v 197.849380 70.117767 -214.331696 
vt -0.596767 1.937216 
vn -1.931549 -1.360748 -0.955811 
v 196.260880 67.022995 -217.951065 
vt -0.868424 1.721113 
vn -1.983917 -1.043427 -1.173004 
v 195.232605 66.140930 -209.291595 
vt -0.205252 1.663786 
vn -1.952820 -1.043121 -0.699677 
v 195.774475 70.117767 -210.097458 
vt -0.265294 1.882572 
vn -1.844757 -1.470612 -0.745422 
v 194.000107 66.192650 -204.311234 
vt 0.145588 1.670786 
vn -1.953430 -1.066742 -0.706024 
v 194.840057 70.117767 -204.472565 
vt 0.095860 1.892761 
vn -1.795135 -1.560944 -0.769867 
v 192.151611 66.277313 -200.187012 
vt 0.381844 1.682867 
vn -1.865845 -1.090637 -0.508087 
v 193.529587 70.117767 -201.409195 
vt 0.285786 1.885382 
vn -1.640656 -1.729370 -0.760284 
v 187.387650 41.259888 -195.279510 
vt -0.236987 1.553560 
vn -1.640289 -1.337799 -0.310211 
v 190.355621 42.636005 -199.877090 
vt -0.657464 1.567146 
vn -1.866211 -1.255676 -0.570831 
v 187.076767 34.697224 -200.066269 
vt -0.407525 0.927782 
vn -1.828552 -1.351868 -0.564575 
v 184.546356 33.012295 -198.206436 
vt -0.195642 0.841719 
vn -1.615601 -1.269104 -0.259399 
v 185.513397 30.453558 -199.828766 
vt -0.292326 0.590482 
vn -1.862457 -1.195435 -0.533264 
v 184.470337 30.759592 -198.429749 
vt -0.174144 0.620828 
vn -1.636383 -1.103180 -0.235626 
v 184.312592 26.085323 -198.893097 
vt -0.134104 0.232271 
vn -1.487122 -1.292206 -0.177063 
v 185.246826 26.814795 -236.767242 
vt -1.876806 0.514797 
vn -1.951569 -1.307190 -1.005676 
v 184.249771 23.552406 -234.820709 
vt -1.696650 0.342924 
vn -1.966095 -1.257477 -0.983826 
v 184.247925 23.552521 -233.002487 
vt -1.607567 0.444208 
vn -1.956299 -1.292267 -0.999542 
v 184.248108 23.552515 -229.002350 
vt -1.427740 0.534309 
vn -1.971619 -1.235992 -0.986877 
v 185.030853 27.213692 -229.340698 
vt -1.479138 0.697252 
vn -1.954742 -1.297119 -0.990631 
v 184.248276 23.552523 -225.002243 
vt -1.196103 0.595436 
vn -1.971100 -1.238190 -1.011566 
v 186.574615 30.572849 -236.550308 
vt -1.924820 0.772919 
vn -1.923767 -1.382477 -0.983978 
v 185.433395 28.005476 -223.775711 
vt -1.100817 0.809607 
vn -1.936646 -1.349274 -1.024719 
v 184.248276 23.552521 -221.002243 
vt -1.009529 0.635216 
vn -1.966309 -1.257172 -1.000000 
v 187.066055 32.024071 -230.128510 
vt -1.548400 0.949554 
vn -1.887360 -1.459290 -1.039429 
v 187.750290 33.158459 -235.643936 
vt -1.902301 0.984140 
vn -1.869568 -1.492950 -0.972595 
v 189.139313 35.658134 -230.746078 
vt -1.602696 1.171017 
vn -1.843781 -1.536621 -0.998413 
v 189.062149 35.351303 -228.471954 
vt -1.461001 1.169254 
vn -1.855652 -1.510468 -1.084625 
v 189.644684 35.285355 -224.294891 
vt -1.161129 1.256994 
vn -1.856750 -1.511841 -1.062378 
v 184.248276 23.552521 -217.002243 
vt -0.717469 0.666985 
vn -1.960602 -1.277588 -1.010681 
v 187.515945 31.749079 -224.448471 
vt -1.123378 1.043417 
vn -1.861908 -1.504395 -1.051117 
v 190.026657 35.674892 -220.135071 
vt -0.873058 1.325874 
vn -1.864929 -1.500641 -0.966187 
v 185.624939 28.256094 -219.203323 
vt -0.777267 0.875250 
vn -1.907654 -1.419281 -1.016205 
v 187.789413 31.928762 -219.767685 
vt -0.823474 1.123732 
vn -1.863617 -1.504028 -1.002563 
v 185.653915 28.242132 -215.205246 
vt -0.480241 0.893139 
vn -1.909363 -1.414032 -1.039154 
v 184.248260 23.552521 -213.002228 
vt -0.399029 0.629742 
vn -1.948090 -1.316193 -1.032867 
v 187.601837 31.867702 -215.019699 
vt -0.506470 1.178288 
vn -1.877502 -1.479370 -1.009613 
v 189.777237 35.816765 -216.201218 
vt -0.586576 1.384907 
vn -1.868073 -1.496338 -1.002319 
v 189.506714 34.862591 -212.922714 
vt -0.344492 1.392868 
vn -1.858276 -1.512817 -1.016602 
v 185.732269 27.678049 -212.368530 
vt -0.254686 0.873724 
vn -1.918976 -1.390869 -1.051086 
v 184.248276 23.552521 -209.002243 
vt -0.100803 0.572124 
vn -1.940918 -1.338440 -1.000000 
v 187.433884 31.535021 -212.347244 
vt -0.289148 1.191450 
vn -1.886139 -1.463318 -0.998352 
v 189.332672 35.058334 -208.241333 
vt -0.010679 1.419912 
vn -1.879669 -1.466125 -0.906097 
v 184.248215 23.552536 -205.002563 
vt 0.235329 0.547390 
vn -1.908325 -1.417633 -1.020966 
v 187.233536 30.912922 -208.041412 
vt 0.036986 1.178829 
vn -1.920074 -1.389496 -0.958954 
v 188.448914 34.961723 -203.395981 
vt 0.367177 1.457954 
vn -1.889740 -1.403381 -0.786560 
v 186.520676 30.482513 -203.158524 
vt 0.423733 1.207190 
vn -1.928925 -1.314331 -0.804535 
v 185.787598 26.678717 -207.459702 
vt 0.075118 0.828783 
vn -1.928772 -1.370514 -0.995850 
v 185.125778 25.602644 -202.571594 
vt 0.485987 0.811632 
vn -1.950134 -1.267395 -0.839813 
v 184.247665 23.552528 -200.502640 
vt 0.647518 0.595606 
vn -1.952148 -1.276367 -0.869751 
v 184.180557 23.552528 -200.252594 
vt 0.658322 0.603168 
vn -1.885437 -1.245239 -0.605316 
# faces 



g rend_exterior_exterior_ground_23.part0 
usemtl material_52039cc1 
f 1/1/1 2/2/2 3/3/3 
f 3/3/3 4/4/4 1/1/1 
f 4/4/4 3/3/3 5/5/5 
f 1/1/1 4/4/4 6/6/6 
f 6/6/6 7/7/7 1/1/1 
f 7/7/7 6/6/6 8/8/8 
f 8/8/8 9/9/9 7/7/7 
f 5/5/5 10/10/10 4/4/4 
f 9/9/9 8/8/8 11/11/11 
f 11/11/11 12/12/12 9/9/9 
f 13/13/13 12/12/12 11/11/11 
f 14/14/14 10/10/10 5/5/5 
f 5/5/5 15/15/15 14/14/14 
f 10/10/10 14/14/14 16/16/16 
f 16/16/16 17/17/17 10/10/10 
f 17/17/17 16/16/16 18/18/18 
f 18/18/18 19/19/19 17/17/17 
f 19/19/19 18/18/18 20/20/20 
f 20/20/20 21/21/21 19/19/19 
f 21/21/21 20/20/20 22/22/22 
f 11/11/11 21/21/21 22/22/22 
f 22/22/22 20/20/20 23/23/23 
f 11/11/11 24/24/24 13/13/13 
f 22/22/22 24/24/24 11/11/11 
f 13/13/13 24/24/24 25/25/25 
f 23/23/23 26/26/26 22/22/22 
f 23/23/23 27/27/27 26/26/26 
f 22/22/22 26/26/26 28/28/28 
f 27/27/27 28/28/28 26/26/26 
f 28/28/28 24/24/24 22/22/22 
f 25/25/25 24/24/24 29/29/29 
f 29/29/29 30/30/30 25/25/25 
f 29/29/29 31/31/31 30/30/30 
f 29/29/29 32/32/32 31/31/31 
f 33/33/33 31/31/31 32/32/32 
f 34/34/34 31/31/31 33/33/33 
f 35/35/35 34/34/34 33/33/33 
f 33/33/33 36/36/36 35/35/35 
f 36/36/36 33/33/33 37/37/37 
f 37/37/37 38/38/38 36/36/36 
f 37/37/37 39/39/39 38/38/38 
f 40/40/40 39/39/39 37/37/37 
f 40/40/40 41/41/41 39/39/39 
f 41/41/41 40/40/40 42/42/42 
f 42/42/42 43/43/43 41/41/41 
f 44/44/44 43/43/43 42/42/42 
f 42/42/42 45/45/45 44/44/44 
f 45/45/45 42/42/42 40/40/40 
f 27/27/27 44/44/44 45/45/45 
f 45/45/45 28/28/28 27/27/27 
f 40/40/40 46/46/46 45/45/45 
f 28/28/28 45/45/45 46/46/46 
f 37/37/37 46/46/46 40/40/40 
f 46/46/46 47/47/47 28/28/28 
f 47/47/47 46/46/46 37/37/37 
f 24/24/24 28/28/28 47/47/47 
f 37/37/37 48/48/48 47/47/47 
f 47/47/47 48/48/48 24/24/24 
f 1/1/1 2/2/2 3/3/3 
g rend_exterior_exterior_ground_23.part1 
usemtl material_52039cc1 
f 49/49/49 50/50/50 51/51/51 
f 51/51/51 52/52/52 49/49/49 
f 52/52/52 51/51/51 53/53/53 
f 53/53/53 54/54/54 52/52/52 
f 55/55/55 56/56/56 57/57/57 
f 57/57/57 58/58/58 55/55/55 
f 58/58/58 57/57/57 59/59/59 
f 59/59/59 60/60/60 58/58/58 
f 60/60/60 59/59/59 61/61/61 
f 61/61/61 62/62/62 60/60/60 
f 49/49/49 50/50/50 51/51/51 
g rend_exterior_exterior_ground_23.part2 
usemtl material_6cd91091 
f 63/63/63 64/64/64 65/65/65 
f 66/66/66 67/67/67 68/68/68 
f 68/68/68 69/69/69 66/66/66 
f 70/70/70 71/71/71 72/72/72 
f 72/72/72 73/73/73 70/70/70 
f 70/70/70 73/73/73 74/74/74 
f 74/74/74 73/73/73 75/75/75 
f 76/76/76 74/74/74 75/75/75 
f 75/75/75 77/77/77 76/76/76 
f 78/78/78 76/76/76 77/77/77 
f 77/77/77 79/79/79 78/78/78 
f 80/80/80 78/78/78 79/79/79 
f 79/79/79 81/81/81 80/80/80 
f 80/80/80 81/81/81 82/82/82 
f 82/82/82 83/83/83 80/80/80 
f 83/83/83 82/82/82 84/84/84 
f 84/84/84 85/85/85 83/83/83 
f 85/85/85 84/84/84 86/86/86 
f 86/86/86 87/87/87 85/85/85 
f 87/87/87 86/86/86 88/88/88 
f 88/88/88 89/89/89 87/87/87 
f 88/88/88 86/86/86 90/90/90 
f 90/90/90 91/91/91 88/88/88 
f 91/91/91 90/90/90 92/92/92 
f 92/92/92 93/93/93 91/91/91 
f 93/93/93 92/92/92 94/94/94 
f 95/95/95 96/96/96 97/97/97 
f 96/96/96 95/95/95 98/98/98 
f 98/98/98 99/99/99 96/96/96 
f 99/99/99 98/98/98 100/100/100 
f 100/100/100 101/101/101 99/99/99 
f 101/101/101 100/100/100 102/102/102 
f 102/102/102 103/103/103 101/101/101 
f 104/104/104 105/105/105 106/106/106 
f 106/106/106 107/107/107 104/104/104 
f 107/107/107 106/106/106 108/108/108 
f 108/108/108 109/109/109 107/107/107 
f 108/108/108 110/110/110 109/109/109 
f 63/63/63 64/64/64 65/65/65 
g rend_exterior_exterior_ground_23.part3 
usemtl material_6cd91091 
f 111/111/111 112/112/112 113/113/113 
f 111/111/111 113/113/113 114/114/114 
f 114/114/114 115/115/115 111/111/111 
f 114/114/114 116/116/116 115/115/115 
f 117/117/117 111/111/111 115/115/115 
f 118/118/118 115/115/115 116/116/116 
f 116/116/116 119/119/119 118/118/118 
f 115/115/115 120/120/120 117/117/117 
f 120/120/120 115/115/115 118/118/118 
f 121/121/121 117/117/117 120/120/120 
f 120/120/120 122/122/122 121/121/121 
f 123/123/123 122/122/122 120/120/120 
f 124/124/124 123/123/123 120/120/120 
f 118/118/118 119/119/119 125/125/125 
f 120/120/120 126/126/126 124/124/124 
f 118/118/118 126/126/126 120/120/120 
f 127/127/127 124/124/124 126/126/126 
f 125/125/125 128/128/128 118/118/118 
f 126/126/126 118/118/118 128/128/128 
f 126/126/126 129/129/129 127/127/127 
f 128/128/128 129/129/129 126/126/126 
f 130/130/130 128/128/128 125/125/125 
f 129/129/129 128/128/128 130/130/130 
f 125/125/125 131/131/131 130/130/130 
f 127/127/127 129/129/129 132/132/132 
f 130/130/130 132/132/132 129/129/129 
f 132/132/132 133/133/133 127/127/127 
f 134/134/134 133/133/133 132/132/132 
f 130/130/130 131/131/131 135/135/135 
f 135/135/135 132/132/132 130/130/130 
f 131/131/131 136/136/136 135/135/135 
f 132/132/132 137/137/137 134/134/134 
f 132/132/132 135/135/135 137/137/137 
f 138/138/138 134/134/134 137/137/137 
f 135/135/135 136/136/136 139/139/139 
f 137/137/137 140/140/140 138/138/138 
f 140/140/140 137/137/137 135/135/135 
f 141/141/141 138/138/138 140/140/140 
f 140/140/140 142/142/142 141/141/141 
f 135/135/135 143/143/143 140/140/140 
f 142/142/142 140/140/140 143/143/143 
f 139/139/139 143/143/143 135/135/135 
f 143/143/143 144/144/144 142/142/142 
f 139/139/139 144/144/144 143/143/143 
f 139/139/139 145/145/145 144/144/144 
f 145/145/145 146/146/146 144/144/144 
f 111/111/111 112/112/112 113/113/113 
